<?xml version="1.0" encoding="UTF-8" standalone="no"?> <!-- Created with Vectornator for iOS (http://vectornator.io/) --><!DOCTYPE svg PUBLIC "-//W3C//DTD SVG 1.1//EN" "http://www.w3.org/Graphics/SVG/1.1/DTD/svg11.dtd">
<svg height="100%" style="fill-rule:nonzero;clip-rule:evenodd;stroke-linecap:round;stroke-linejoin:round;" xmlns:xlink="http://www.w3.org/1999/xlink" xmlns="http://www.w3.org/2000/svg" xml:space="preserve" width="100%" xmlns:vectornator="http://vectornator.io" version="1.1" viewBox="0 0 1500 500">
<defs/>
<g id="レイヤー 1" vectornator:layerName="レイヤー 1" visibility="hidden">
<path d="M16.3125-86.7812L16.3125+6.03125L1481.53+6.03125L1481.53-86.7812L16.3125-86.7812Z" fill-opacity="0.674916" fill="#a7a7a7" opacity="1"/>
<path d="M1481.53+6.03125L1481.53+326.75L1481.53+496.906L1504.47+496.906L1504.47+6.03125L1481.53+6.03125Z" fill-opacity="0.674916" fill="#a7a7a7" opacity="1"/>
<path d="M1481.53+496.906L16.3125+496.906L16.3125+574.875L1481.53+574.875L1481.53+496.906Z" fill-opacity="0.674916" fill="#a7a7a7" opacity="1"/>
<path d="M16.3125+496.906L16.3125+299.188L16.3125+6.03125L7.1875+6.03125L7.1875+496.906L16.3125+496.906Z" fill-opacity="0.674916" fill="#a7a7a7" opacity="1"/>
<path d="M16.3125+299.188C16.3125+390.442+180.546+464.594+382.625+464.594L1176.28+464.594C1344.78+464.594+1481.53+402.841+1481.53+326.75C1481.53+253.967+1356.39+194.963+1197.66+190C1156.14+94.8857+971.163+23.5+748.938+23.5C572.5+23.5+419.251+68.7085+342.938+134.875C159.174+143.697+16.3125+213.998+16.3125+299.188Z" fill-opacity="0.674916" fill="#a7a7a7" opacity="1"/>
<path d="M748.938+78.625C908.891+78.625+1046.86+129.897+1078+200.75L1096.31+242.125L1189.72+245.156C1284.96+247.913+1359.44+284.017+1359.44+326.75C1359.44+372.239+1277.02+409.469+1176.28+409.469L382.625+409.469C247.702+409.469+138.406+360.116+138.406+299.188C138.406+242.67+231.816+195.508+355.75+189.719L421.094+186.688L451.625+160.5C509.623+110.048+623.172+78.625+748.938+78.625Z" fill-opacity="0.674916" fill="#a7a7a7" opacity="1"/>
<path d="M16.3125+6.03125L16.3125+299.188C16.3125+213.998+159.174+143.697+342.938+134.875C419.251+68.7085+572.5+23.5+748.938+23.5C971.163+23.5001+1156.14+94.8857+1197.66+190C1356.39+194.963+1481.53+253.967+1481.53+326.75L1481.53+6.03125L16.3125+6.03125Z" fill-opacity="0.674916" fill="#a7a7a7" opacity="1"/>
<path d="M1481.53+326.75C1481.53+402.841+1344.78+464.594+1176.28+464.594L382.625+464.594C180.546+464.594+16.3125+390.442+16.3125+299.188L16.3125+496.906L1481.53+496.906L1481.53+326.75Z" fill-opacity="0.674916" fill="#a7a7a7" opacity="1"/>
</g>
<g id="レイヤー 2" vectornator:layerName="レイヤー 2">
<path d="M749.768+52.0892C598.459+52.0892+461.847+89.8946+392.069+150.594L355.336+182.1L276.721+185.747C127.615+192.713+15.2324+249.454+15.2324+317.45C15.2323+390.753+146.727+450.13+309.054+450.13L1263.91+450.13C1385.1+450.13+1484.27+405.339+1484.27+350.611C1484.27+299.199+1394.66+255.761+1280.08+252.444L1167.7+248.798L1145.67+199.019C1108.21+113.775+942.21+52.0892+749.768+52.0892Z" opacity="1" fill="#f7ffd9"/>
</g>
<g id="レイヤー 3" vectornator:layerName="レイヤー 3">
<g opacity="1" vectornator:blendMode="比較（明）">
<path d="M436.235+109.747C449.372+86.6444+454.808+70.7894+454.808+58.1054C454.808+42.2504+447.107+34.0964+441.671+34.0964C438.5+34.0964+434.876+36.3614+432.158+40.4384C380.516+118.354+267.266+305.896+267.266+398.308C267.266+433.189+288.557+460.369+305.771+460.369C317.549+460.369+326.609+454.933+335.669+443.608C357.413+415.975+377.345+364.333+384.14+319.486C410.867+309.067+432.611+283.699+437.141+272.827C441.218+262.408+443.936+252.442+441.218+244.741C437.141+232.963+428.081+233.869+423.098+243.835C413.585+263.767+401.354+281.434+387.311+292.759C389.576+268.297+386.858+242.023+365.114+234.322C386.858+191.74+417.209+143.269+436.235+109.747ZM356.507+301.366C350.165+298.648+348.806+293.212+348.806+285.058C348.806+274.639+351.524+256.972+354.695+255.613C357.866+254.254+359.678+261.502+359.678+278.263C359.678+287.776+358.772+293.212+356.507+301.366ZM298.976+416.881C298.976+395.59+311.207+355.273+328.421+312.691C333.404+318.127+341.105+321.751+349.259+323.563C336.575+374.299+312.566+432.283+303.053+432.283C300.335+432.283+298.976+425.488+298.976+416.881Z" opacity="1" fill="#fedc3d"/>
<path d="M594.019+76.2254C594.019+64.4474+589.036+51.7634+579.07+43.1564C570.463+35.0024+562.309+37.7204+553.702+46.3274C509.308+92.9864+458.119+176.791+440.452+251.989C438.187+261.049+437.281+270.109+437.281+277.81C437.281+309.067+454.495+324.922+482.128+324.922C520.18+324.922+553.702+287.776+560.497+274.186C566.386+261.955+566.839+251.536+565.027+244.741C561.856+232.963+551.89+232.963+546.001+244.288C528.787+276.904+502.513+307.255+481.675+307.255C475.786+307.255+473.068+299.554+473.068+288.682C473.068+272.827+478.957+252.442+488.017+229.339C527.881+202.612+577.258+149.158+591.301+95.2514C593.566+87.5504+594.019+82.5674+594.019+76.2254ZM568.651+87.5504C571.369+89.3624+565.48+109.294+550.078+135.115C539.659+152.782+524.257+173.62+504.778+192.646C507.949+184.945+527.881+150.97+539.659+131.038C555.061+104.311+566.839+86.6444+568.651+87.5504Z" opacity="1" fill="#fedc3d"/>
<path d="M746.366+278.263C753.161+265.126+751.349+251.989+749.537+247.912C745.913+239.305+738.212+240.664+733.682+248.365C717.374+276.904+694.271+308.161+679.322+308.161C673.433+308.161+670.715+303.631+670.715+295.477C670.715+277.81+688.382+247.006+701.519+225.715C717.374+199.441+726.887+179.509+726.887+164.107C726.887+154.141+724.622+146.893+720.092+140.551C714.656+132.85+707.408+134.662+701.066+143.269C684.758+164.107+672.98+194.911+646.253+238.399C623.15+274.639+599.141+305.443+587.363+305.443C577.397+305.443+578.756+288.682+586.91+270.562C602.765+235.681+635.834+183.133+635.834+164.56C635.834+157.765+634.022+150.064+629.039+143.722C623.603+136.927+615.449+136.021+609.56+143.722C581.474+183.133+558.371+228.433+548.405+256.972C544.328+267.844+542.516+278.263+542.516+288.229C542.516+307.708+551.576+324.922+574.679+324.922C597.782+324.922+618.167+310.879+633.569+293.665C635.381+314.05+648.971+327.187+675.698+327.187C703.784+327.187+733.229+304.084+746.366+278.263Z" opacity="1" fill="#fedc3d"/>
<path d="M874.705+109.747C887.842+86.6444+893.278+70.7894+893.278+58.1054C893.278+42.2504+885.577+34.0964+880.141+34.0964C876.97+34.0964+873.346+36.3614+870.628+40.4384C818.986+118.354+705.736+305.896+705.736+398.308C705.736+433.189+727.027+460.369+744.241+460.369C756.019+460.369+765.079+454.933+774.139+443.608C795.883+415.975+815.815+364.333+822.61+319.486C849.337+309.067+871.081+283.699+875.611+272.827C879.688+262.408+882.406+252.442+879.688+244.741C875.611+232.963+866.551+233.869+861.568+243.835C852.055+263.767+839.824+281.434+825.781+292.759C828.046+268.297+825.328+242.023+803.584+234.322C825.328+191.74+855.679+143.269+874.705+109.747ZM794.977+301.366C788.635+298.648+787.276+293.212+787.276+285.058C787.276+274.639+789.994+256.972+793.165+255.613C796.336+254.254+798.148+261.502+798.148+278.263C798.148+287.776+797.242+293.212+794.977+301.366ZM737.446+416.881C737.446+395.59+749.677+355.273+766.891+312.691C771.874+318.127+779.575+321.751+787.729+323.563C775.045+374.299+751.036+432.283+741.523+432.283C738.805+432.283+737.446+425.488+737.446+416.881Z" opacity="1" fill="#fedc3d"/>
<path d="M1002.14+109.747C1015.27+86.6444+1020.71+70.7894+1020.71+58.1054C1020.71+42.2504+1013.01+34.0964+1007.57+34.0964C1004.4+34.0964+1000.78+36.3614+998.061+40.4384C946.419+118.354+833.169+305.896+833.169+398.308C833.169+433.189+854.46+460.369+871.674+460.369C883.452+460.369+892.512+454.933+901.572+443.608C923.316+415.975+943.248+364.333+950.043+319.486C976.77+309.067+998.514+283.699+1003.04+272.827C1007.12+262.408+1009.84+252.442+1007.12+244.741C1003.04+232.963+993.984+233.869+989.001+243.835C979.488+263.767+967.257+281.434+953.214+292.759C955.479+268.297+952.761+242.023+931.017+234.322C952.761+191.74+983.112+143.269+1002.14+109.747ZM922.41+301.366C916.068+298.648+914.709+293.212+914.709+285.058C914.709+274.639+917.427+256.972+920.598+255.613C923.769+254.254+925.581+261.502+925.581+278.263C925.581+287.776+924.675+293.212+922.41+301.366ZM864.879+416.881C864.879+395.59+877.11+355.273+894.324+312.691C899.307+318.127+907.008+321.751+915.162+323.563C902.478+374.299+878.469+432.283+868.956+432.283C866.238+432.283+864.879+425.488+864.879+416.881Z" opacity="1" fill="#fedc3d"/>
<path d="M1187.55+243.835C1185.74+237.946+1178.95+238.852+1173.06+247.006C1158.56+267.391+1135.01+290.494+1107.37+307.255C1125.95+264.22+1149.5+220.279+1162.64+194.911C1168.53+183.586+1170.79+173.62+1170.79+164.56C1170.79+155.047+1168.98+148.252+1162.19+141.457C1157.2+136.474+1151.31+137.38+1144.97+145.534C1134.1+161.842+1121.87+189.475+1091.52+240.664C1069.32+278.263+1048.94+304.99+1037.16+304.99C1025.38+304.99+1029.46+286.87+1035.8+270.562C1044.41+249.271+1053.92+230.698+1069.32+206.236C1079.74+189.475+1085.18+176.338+1085.18+165.013C1085.18+157.765+1081.1+149.611+1076.57+143.269C1071.59+136.021+1064.79+136.474+1058.9+144.175C1030.82+182.68+1008.62+228.433+998.2+256.972C994.123+268.297+992.311+279.169+992.311+288.682C992.311+307.708+1002.28+324.922+1024.93+324.922C1038.52+324.922+1050.3+320.845+1062.07+312.238L1055.28+328.093C1011.34+345.76+974.644+373.393+960.601+412.351C957.883+420.505+956.524+428.206+956.524+433.642C956.524+448.138+963.319+461.728+970.114+471.241C980.986+485.737+990.499+485.737+1000.92+481.66C1040.33+466.711+1071.13+394.231+1096.05+334.435C1133.19+319.033+1163.09+302.272+1181.21+274.639C1188.91+262.861+1189.82+251.083+1187.55+243.835ZM1043.5+357.538C1032.63+382+1021.76+404.197+1012.24+420.958C999.559+443.155+990.046+456.292+986.875+453.574C982.345+449.497+985.516+430.924+996.841+409.633C1006.35+391.966+1021.76+372.487+1043.5+357.538Z" opacity="1" fill="#fedc3d"/>
</g>
</g>
</svg>
